<svg id="Layer_1" data-name="Layer 1" xmlns="http://www.w3.org/2000/svg" viewBox="0 0 20 20"><defs><style>.cls-1{fill:#373737;}.cls-2{fill:none;stroke:#373737;stroke-linecap:round;stroke-linejoin:round;stroke-width:0;}.cls-3{fill:#f5f5f6;}</style></defs><title>icon-close</title><path class="cls-1" d="M15.3,4.7a7.5,7.5,0,1,0,0,10.6A7.49,7.49,0,0,0,15.3,4.7Zm-3,8.64L10,11.06,7.72,13.34,6.66,12.28,8.94,10,6.66,7.72l.53-.53h0l.53-.53L10,8.94l2.28-2.28,1.06,1.06L11.06,10l2.28,2.28-.53.53h0Z"/><line class="cls-2" x1="7.19" y1="7.19" x2="7.19" y2="7.19"/><line class="cls-2" x1="12.81" y1="12.81" x2="12.81" y2="12.81"/><polygon class="cls-3" points="11.06 10 13.34 7.72 12.28 6.66 10 8.94 7.72 6.66 7.19 7.19 6.66 7.72 8.94 10 6.66 12.28 7.72 13.34 10 11.06 12.28 13.34 12.81 12.81 13.34 12.28 11.06 10"/></svg>